<svg width="35" height="27" viewBox="0 0 35 27" fill="none" xmlns="http://www.w3.org/2000/svg">
<g clip-path="url(#clip0_14_569)">
<rect width="35" height="27" fill="white"/>
<rect x="2" y="2" width="15" height="1" fill="black"/>
<rect x="2" y="20" width="15" height="1" fill="black"/>
<rect x="2" y="4" width="15" height="1" fill="black"/>
<rect x="2" y="22" width="15" height="1" fill="black"/>
<rect x="2" y="12" width="11" height="1" fill="black"/>
<rect x="2" y="6" width="15" height="1" fill="black"/>
<rect x="2" y="24" width="15" height="1" fill="black"/>
<rect x="2" y="14" width="11" height="1" fill="black"/>
<rect x="2" y="10" width="5" height="1" fill="black"/>
<rect x="2" y="8" width="5" height="1" fill="black"/>
<rect x="2" y="16" width="5" height="1" fill="black"/>
<rect x="2" y="18" width="5" height="1" fill="black"/>
<rect x="24" y="2" width="3" height="1" fill="black"/>
<rect x="24" y="4" width="3" height="1" fill="black"/>
<rect x="24" y="6" width="3" height="1" fill="black"/>
<rect x="24" y="8" width="3" height="1" fill="black"/>
<rect x="24" y="10" width="3" height="1" fill="black"/>
<rect x="24" y="16" width="3" height="1" fill="black"/>
<rect x="24" y="18" width="3" height="1" fill="black"/>
<rect x="24" y="20" width="3" height="1" fill="black"/>
<rect x="24" y="22" width="3" height="1" fill="black"/>
<rect x="24" y="24" width="3" height="1" fill="black"/>
<rect x="18" y="2" width="1" height="23" fill="black"/>
<rect x="28" y="2" width="1" height="23" fill="black"/>
<rect x="20" y="2" width="1" height="23" fill="black"/>
<rect x="30" y="2" width="1" height="23" fill="black"/>
<rect x="22" y="2" width="1" height="23" fill="black"/>
<rect x="32" y="2" width="1" height="23" fill="black"/>
<rect x="24" y="12" width="1" height="3" fill="black"/>
<rect x="26" y="12" width="1" height="3" fill="black"/>
<rect x="10" y="8" width="1" height="3" fill="black"/>
<rect x="8" y="8" width="1" height="3" fill="black"/>
<rect x="12" y="16" width="1" height="3" fill="black"/>
<rect x="12" y="8" width="1" height="3" fill="black"/>
<rect x="10" y="16" width="1" height="3" fill="black"/>
<rect x="8" y="16" width="1" height="3" fill="black"/>
<rect x="14" y="8" width="1" height="11" fill="black"/>
<rect x="16" y="8" width="1" height="11" fill="black"/>
<path fill-rule="evenodd" clip-rule="evenodd" d="M0 27V0H35V27H0ZM34 26H1V1H34V26Z" fill="black"/>
</g>
<defs>
<clipPath id="clip0_14_569">
<rect width="35" height="27" fill="white"/>
</clipPath>
</defs>
</svg>
